# WaveFront *.obj file (generated by Autodesk ATF)

mtllib imu_link.mtl

g imu

v 0.013000 0.250564 0.105226
v 0.013000 0.250514 0.105226
v 0.017500 0.250514 0.105226
v 0.017500 0.215514 0.105226
v 0.013000 0.215514 0.105226
v 0.013000 0.215464 0.105226
v 0.010000 0.207264 0.105226
v -0.010000 0.207264 0.105226
v -0.013000 0.215464 0.105226
v -0.013000 0.215514 0.105226
v -0.017500 0.215514 0.105226
v -0.017500 0.250514 0.105226
v -0.013000 0.250514 0.105226
v -0.013000 0.250564 0.105226
v -0.010000 0.258764 0.105226
v 0.010000 0.258764 0.105226
v -0.006025 0.213264 0.105226
v -0.006363 0.213228 0.105226
v -0.006686 0.213123 0.105226
v -0.006980 0.212953 0.105226
v -0.007233 0.212726 0.105226
v -0.007432 0.212451 0.105226
v -0.007570 0.212141 0.105226
v -0.007641 0.211808 0.105226
v -0.007641 0.211469 0.105226
v -0.007570 0.211136 0.105226
v -0.007432 0.210826 0.105226
v -0.007233 0.210551 0.105226
v -0.006980 0.210324 0.105226
v -0.006686 0.210154 0.105226
v -0.006363 0.210049 0.105226
v -0.006025 0.210014 0.105226
v 0.006025 0.210014 0.105226
v 0.006363 0.210049 0.105226
v 0.006686 0.210154 0.105226
v 0.006980 0.210324 0.105226
v 0.007233 0.210551 0.105226
v 0.007432 0.210826 0.105226
v 0.007570 0.211136 0.105226
v 0.007641 0.211469 0.105226
v 0.007641 0.211808 0.105226
v 0.007570 0.212141 0.105226
v 0.007432 0.212451 0.105226
v 0.007233 0.212726 0.105226
v 0.006980 0.212953 0.105226
v 0.006686 0.213123 0.105226
v 0.006363 0.213228 0.105226
v 0.006025 0.213264 0.105226
v 0.006025 0.256014 0.105226
v -0.006025 0.256014 0.105226
v -0.006363 0.255978 0.105226
v -0.006686 0.255873 0.105226
v -0.006980 0.255703 0.105226
v -0.007233 0.255476 0.105226
v -0.007432 0.255201 0.105226
v -0.007570 0.254891 0.105226
v -0.007641 0.254558 0.105226
v -0.007641 0.254219 0.105226
v -0.007570 0.253886 0.105226
v -0.007432 0.253576 0.105226
v -0.007233 0.253301 0.105226
v -0.006980 0.253074 0.105226
v -0.006686 0.252904 0.105226
v -0.006363 0.252799 0.105226
v -0.006025 0.252764 0.105226
v 0.006025 0.252764 0.105226
v 0.006363 0.252799 0.105226
v 0.006686 0.252904 0.105226
v 0.006980 0.253074 0.105226
v 0.007233 0.253301 0.105226
v 0.007432 0.253576 0.105226
v 0.007570 0.253886 0.105226
v 0.007641 0.254219 0.105226
v 0.007641 0.254558 0.105226
v 0.007570 0.254891 0.105226
v 0.007432 0.255201 0.105226
v 0.007233 0.255476 0.105226
v 0.006980 0.255703 0.105226
v 0.006686 0.255873 0.105226
v 0.006363 0.255978 0.105226
v 0.010000 0.258764 0.108226
v 0.013000 0.250564 0.108226
v 0.013000 0.250514 0.108226
v -0.013000 0.250514 0.108226
v -0.017500 0.250514 0.120726
v 0.017500 0.250514 0.120726
v 0.017500 0.215514 0.120726
v -0.013000 0.215514 0.108226
v 0.013000 0.215514 0.108226
v -0.017500 0.215514 0.120726
v -0.017500 0.240627 0.108226
v -0.017500 0.240627 0.114871
v -0.017500 0.225400 0.114871
v -0.017500 0.225400 0.108226
v 0.000000 0.233014 0.120726
v 0.015000 0.233014 0.120726
v 0.015000 0.218014 0.120726
v 0.000000 0.218014 0.120726
v -0.005894 0.217037 0.120726
v -0.003873 0.218495 0.120726
v -0.005894 0.219954 0.120726
v -0.005894 0.220579 0.120726
v -0.003341 0.218808 0.120726
v -0.000894 0.220579 0.120726
v -0.000894 0.219954 0.120726
v -0.002915 0.218495 0.120726
v -0.000894 0.217037 0.120726
v -0.000894 0.216412 0.120726
v -0.003341 0.218183 0.120726
v -0.005894 0.216412 0.120726
v 0.016289 0.233590 0.120726
v 0.013842 0.235257 0.120726
v 0.011289 0.235257 0.120726
v 0.011289 0.235882 0.120726
v 0.013842 0.235882 0.120726
v 0.016289 0.237549 0.120726
v 0.016289 0.236924 0.120726
v 0.014267 0.235569 0.120726
v 0.016289 0.234215 0.120726
v 0.000000 0.218014 0.115726
v 0.000000 0.233014 0.115726
v 0.015000 0.233014 0.115726
v 0.015000 0.218014 0.115726
v -0.005894 0.216412 0.115726
v -0.005894 0.217037 0.115726
v -0.003873 0.218495 0.115726
v -0.005894 0.219954 0.115726
v -0.005894 0.220579 0.115726
v -0.003341 0.218808 0.115726
v -0.000894 0.220579 0.115726
v -0.000894 0.219954 0.115726
v -0.002915 0.218495 0.115726
v -0.000894 0.217037 0.115726
v -0.000894 0.216412 0.115726
v -0.003341 0.218183 0.115726
v 0.016289 0.234215 0.115726
v 0.016289 0.233590 0.115726
v 0.013842 0.235257 0.115726
v 0.011289 0.235257 0.115726
v 0.011289 0.235882 0.115726
v 0.013842 0.235882 0.115726
v 0.016289 0.237549 0.115726
v 0.016289 0.236924 0.115726
v 0.014267 0.235569 0.115726
v -0.012500 0.225400 0.108226
v -0.012500 0.240627 0.108226
v -0.012500 0.240627 0.114871
v -0.012500 0.225400 0.114871
v 0.013000 0.215464 0.108226
v 0.010000 0.207264 0.108226
v -0.010000 0.207264 0.108226
v -0.013000 0.215464 0.108226
v 0.006025 0.210014 0.108226
v -0.006025 0.210014 0.108226
v -0.006363 0.210049 0.108226
v -0.006686 0.210154 0.108226
v -0.006980 0.210324 0.108226
v -0.007233 0.210551 0.108226
v -0.007432 0.210826 0.108226
v -0.007570 0.211136 0.108226
v -0.007641 0.211469 0.108226
v -0.007641 0.211808 0.108226
v -0.007570 0.212141 0.108226
v -0.007432 0.212451 0.108226
v -0.007233 0.212726 0.108226
v -0.006980 0.212953 0.108226
v -0.006686 0.213123 0.108226
v -0.006363 0.213228 0.108226
v -0.006025 0.213264 0.108226
v 0.006025 0.213264 0.108226
v 0.006363 0.213228 0.108226
v 0.006686 0.213123 0.108226
v 0.006980 0.212953 0.108226
v 0.007233 0.212726 0.108226
v 0.007432 0.212451 0.108226
v 0.007570 0.212141 0.108226
v 0.007641 0.211808 0.108226
v 0.007641 0.211469 0.108226
v 0.007570 0.211136 0.108226
v 0.007432 0.210826 0.108226
v 0.007233 0.210551 0.108226
v 0.006980 0.210324 0.108226
v 0.006686 0.210154 0.108226
v 0.006363 0.210049 0.108226
v -0.013000 0.250564 0.108226
v -0.010000 0.258764 0.108226
v -0.006025 0.252764 0.108226
v -0.006363 0.252799 0.108226
v -0.006686 0.252904 0.108226
v -0.006980 0.253074 0.108226
v -0.007233 0.253301 0.108226
v -0.007432 0.253576 0.108226
v -0.007570 0.253886 0.108226
v -0.007641 0.254219 0.108226
v -0.007641 0.254558 0.108226
v -0.007570 0.254891 0.108226
v -0.007432 0.255201 0.108226
v -0.007233 0.255476 0.108226
v -0.006980 0.255703 0.108226
v -0.006686 0.255873 0.108226
v -0.006363 0.255978 0.108226
v -0.006025 0.256014 0.108226
v 0.006025 0.256014 0.108226
v 0.006363 0.255978 0.108226
v 0.006686 0.255873 0.108226
v 0.006980 0.255703 0.108226
v 0.007233 0.255476 0.108226
v 0.007432 0.255201 0.108226
v 0.007570 0.254891 0.108226
v 0.007641 0.254558 0.108226
v 0.007641 0.254219 0.108226
v 0.007570 0.253886 0.108226
v 0.007432 0.253576 0.108226
v 0.007233 0.253301 0.108226
v 0.006980 0.253074 0.108226
v 0.006686 0.252904 0.108226
v 0.006363 0.252799 0.108226
v 0.006025 0.252764 0.108226
vt -3.407700 -1.347700 0.000000
vt -2.850929 -1.041450 0.000000
vt -3.407700 -1.342700 0.000000
vt -2.864747 -1.010415 0.000000
vt -2.871810 -0.977186 0.000000
vt -3.857700 -1.347700 0.000000
vt -3.407700 -4.847700 0.000000
vt -2.710200 -5.072700 0.000000
vt -2.710200 -1.122700 0.000000
vt -1.505200 -5.072700 0.000000
vt -1.505200 -1.122700 0.000000
vt -0.807700 -1.347700 0.000000
vt -1.471414 -1.119149 0.000000
vt -1.439105 -1.108651 0.000000
vt -1.409685 -1.091665 0.000000
vt -1.384439 -1.068934 0.000000
vt -1.364471 -1.041450 0.000000
vt -0.807700 -1.342700 0.000000
vt -1.350653 -1.010415 0.000000
vt -1.343590 -0.977186 0.000000
vt -1.107700 -0.522700 0.000000
vt -1.343590 -0.943214 0.000000
vt -1.350653 -0.909985 0.000000
vt -1.364471 -0.878950 0.000000
vt -1.384439 -0.851466 0.000000
vt -1.409685 -0.828735 0.000000
vt -1.439105 -0.811749 0.000000
vt -1.471414 -0.801251 0.000000
vt -1.505200 -0.797700 0.000000
vt -3.107700 -0.522700 0.000000
vt -2.710200 -0.797700 0.000000
vt -2.743985 -0.801251 0.000000
vt -2.776295 -0.811749 0.000000
vt -2.805715 -0.828735 0.000000
vt -2.830961 -0.851466 0.000000
vt -2.850929 -0.878950 0.000000
vt -2.864747 -0.909985 0.000000
vt -2.871810 -0.943214 0.000000
vt -3.857700 -4.847700 0.000000
vt -3.407700 -4.852700 0.000000
vt -2.850929 -5.153950 0.000000
vt -2.830961 -5.126466 0.000000
vt -2.805715 -5.103735 0.000000
vt -3.107700 -5.672700 0.000000
vt -2.871810 -5.218214 0.000000
vt -2.864747 -5.184985 0.000000
vt -1.107700 -5.672700 0.000000
vt -2.710200 -5.397700 0.000000
vt -2.743985 -5.394149 0.000000
vt -2.776295 -5.383651 0.000000
vt -0.807700 -4.852700 0.000000
vt -1.343590 -5.218214 0.000000
vt -1.343590 -5.252186 0.000000
vt -1.350653 -5.285415 0.000000
vt -0.807700 -4.847700 0.000000
vt -1.364471 -5.153950 0.000000
vt -1.350653 -5.184985 0.000000
vt -0.357700 -4.847700 0.000000
vt -1.471414 -5.076251 0.000000
vt -0.357700 -1.347700 0.000000
vt -1.439105 -5.086749 0.000000
vt -1.409685 -5.103735 0.000000
vt -1.384439 -5.126466 0.000000
vt -1.364471 -5.316450 0.000000
vt -1.384439 -5.343934 0.000000
vt -1.409685 -5.366665 0.000000
vt -1.439105 -5.383651 0.000000
vt -1.471414 -5.394149 0.000000
vt -1.505200 -5.397700 0.000000
vt -2.805715 -5.366665 0.000000
vt -2.830961 -5.343934 0.000000
vt -2.850929 -5.316450 0.000000
vt -2.864747 -5.285415 0.000000
vt -2.871810 -5.252186 0.000000
vt -2.776295 -5.086749 0.000000
vt -2.743985 -5.076251 0.000000
vt -2.743985 -1.119149 0.000000
vt -2.776295 -1.108651 0.000000
vt -2.805715 -1.091665 0.000000
vt -2.830961 -1.068934 0.000000
vt 0.970347 0.337700 0.000000
vt 0.097192 0.337700 0.000000
vt 0.970347 0.037700 0.000000
vt 0.097192 0.037700 0.000000
vt -0.073200 -0.337700 0.000000
vt -0.068200 -0.337700 0.000000
vt -0.073200 -0.037700 0.000000
vt -0.068200 -0.037700 0.000000
vt 0.162700 -0.807700 0.000000
vt 0.462700 -0.807700 0.000000
vt 0.162700 -0.357700 0.000000
vt 1.712700 -0.357700 0.000000
vt 1.712700 -3.857700 0.000000
vt 0.462700 -3.407700 0.000000
vt 0.162700 -3.857700 0.000000
vt 0.162700 -3.407700 0.000000
vt -0.357700 -0.162700 0.000000
vt -3.857700 -0.162700 0.000000
vt -0.357700 -1.712700 0.000000
vt -3.857700 -1.712700 0.000000
vt -0.162700 0.807700 0.000000
vt -0.462700 0.807700 0.000000
vt -0.162700 0.357700 0.000000
vt -1.712700 0.357700 0.000000
vt -0.462700 3.407700 0.000000
vt -1.712700 3.857700 0.000000
vt -0.162700 3.857700 0.000000
vt -0.162700 3.407700 0.000000
vt -3.857700 -0.162700 0.000000
vt -1.346307 -0.462700 0.000000
vt -0.357700 -0.162700 0.000000
vt -1.346307 -1.127217 0.000000
vt -0.357700 -1.712700 0.000000
vt -2.869093 -1.127217 0.000000
vt -3.857700 -1.712700 0.000000
vt -2.869093 -0.462700 0.000000
vt 0.357700 -3.857700 0.000000
vt 1.518285 -3.351197 0.000000
vt 0.357700 -0.357700 0.000000
vt 2.107700 -2.107700 0.000000
vt 3.857700 -0.357700 0.000000
vt 3.236573 -1.820856 0.000000
vt 3.736573 -1.654189 0.000000
vt 3.491892 -1.820856 0.000000
vt 3.857700 -3.857700 0.000000
vt 2.018285 -3.767864 0.000000
vt 1.518285 -3.767864 0.000000
vt 1.518285 -3.705364 0.000000
vt 3.736573 -2.050022 0.000000
vt 3.607700 -3.607700 0.000000
vt 2.107700 -3.607700 0.000000
vt 2.018285 -3.705364 0.000000
vt 1.816158 -3.559531 0.000000
vt 2.018285 -3.413697 0.000000
vt 2.018285 -3.351197 0.000000
vt 3.236573 -1.883356 0.000000
vt 3.607700 -2.107700 0.000000
vt 3.491892 -1.883356 0.000000
vt 1.720413 -3.559531 0.000000
vt 1.518285 -3.413697 0.000000
vt 1.773605 -3.528281 0.000000
vt 1.773605 -3.590781 0.000000
vt 3.736573 -1.716689 0.000000
vt 3.736573 -1.987522 0.000000
vt 3.534445 -1.852106 0.000000
vt 1.657700 -0.057700 0.000000
vt 0.157700 -0.057700 0.000000
vt 1.657700 -0.557700 0.000000
vt 0.157700 -0.557700 0.000000
vt -0.557700 -1.657700 0.000000
vt -0.057700 -1.657700 0.000000
vt -0.557700 -0.157700 0.000000
vt -0.057700 -0.157700 0.000000
vt 1.657700 -0.057700 0.000000
vt 0.157700 -0.057700 0.000000
vt 1.657700 -0.557700 0.000000
vt 0.157700 -0.557700 0.000000
vt 0.557700 1.657700 0.000000
vt 0.057700 1.657700 0.000000
vt 0.557700 0.157700 0.000000
vt 0.057700 0.157700 0.000000
vt 0.157700 -1.657700 0.000000
vt 1.657700 -1.657700 0.000000
vt 0.157700 -0.157700 0.000000
vt 1.657700 -0.157700 0.000000
vt 0.136450 -0.057700 0.000000
vt 0.073950 -0.057700 0.000000
vt 0.136450 -0.557700 0.000000
vt 0.073950 -0.557700 0.000000
vt -0.557700 -0.284919 0.000000
vt -0.057700 -0.284919 0.000000
vt -0.557700 -0.035674 0.000000
vt -0.057700 -0.035674 0.000000
vt 0.557700 0.284919 0.000000
vt 0.057700 0.284919 0.000000
vt 0.557700 0.035674 0.000000
vt 0.057700 0.035674 0.000000
vt 0.136450 -0.057700 0.000000
vt 0.073950 -0.057700 0.000000
vt 0.136450 -0.557700 0.000000
vt 0.073950 -0.557700 0.000000
vt -0.557700 -0.352506 0.000000
vt -0.057700 -0.352506 0.000000
vt -0.557700 -0.041787 0.000000
vt -0.057700 -0.041787 0.000000
vt -0.557700 -0.342994 0.000000
vt -0.057700 -0.342994 0.000000
vt -0.557700 -0.040956 0.000000
vt -0.057700 -0.040956 0.000000
vt 0.136450 -0.057700 0.000000
vt 0.073950 -0.057700 0.000000
vt 0.136450 -0.557700 0.000000
vt 0.073950 -0.557700 0.000000
vt 0.557700 0.284919 0.000000
vt 0.057700 0.284919 0.000000
vt 0.557700 0.035674 0.000000
vt 0.057700 0.035674 0.000000
vt -0.557700 -0.284919 0.000000
vt -0.057700 -0.284919 0.000000
vt -0.557700 -0.035674 0.000000
vt -0.057700 -0.035674 0.000000
vt 0.136450 -0.057700 0.000000
vt 0.073950 -0.057700 0.000000
vt 0.136450 -0.557700 0.000000
vt 0.073950 -0.557700 0.000000
vt 0.557700 0.342994 0.000000
vt 0.057700 0.342994 0.000000
vt 0.557700 0.040956 0.000000
vt 0.057700 0.040956 0.000000
vt 0.557700 0.352506 0.000000
vt 0.057700 0.352506 0.000000
vt 0.557700 0.041787 0.000000
vt 0.057700 0.041787 0.000000
vt 0.057700 -0.466033 0.000000
vt 0.313019 -0.288950 0.000000
vt 0.057700 -0.403533 0.000000
vt 0.259827 -0.257700 0.000000
vt 0.313019 -0.226450 0.000000
vt 0.057700 -0.111866 0.000000
vt 0.057700 -0.049366 0.000000
vt 0.557700 -0.466033 0.000000
vt 0.557700 -0.403533 0.000000
vt 0.355572 -0.257700 0.000000
vt 0.557700 -0.111866 0.000000
vt 0.557700 -0.049366 0.000000
vt 0.136450 -0.057700 0.000000
vt 0.073950 -0.057700 0.000000
vt 0.136450 -0.557700 0.000000
vt 0.073950 -0.557700 0.000000
vt 0.557700 0.336355 0.000000
vt 0.057700 0.336355 0.000000
vt 0.557700 0.040304 0.000000
vt 0.057700 0.040304 0.000000
vt 0.557700 0.288551 0.000000
vt 0.057700 0.288551 0.000000
vt 0.557700 0.033232 0.000000
vt 0.057700 0.033232 0.000000
vt 0.136450 -0.057700 0.000000
vt 0.073950 -0.057700 0.000000
vt 0.136450 -0.557700 0.000000
vt 0.073950 -0.557700 0.000000
vt -0.557700 -0.288551 0.000000
vt -0.057700 -0.288551 0.000000
vt -0.557700 -0.033232 0.000000
vt -0.057700 -0.033232 0.000000
vt -0.557700 -0.336355 0.000000
vt -0.057700 -0.336355 0.000000
vt -0.557700 -0.040304 0.000000
vt -0.057700 -0.040304 0.000000
vt 0.136450 -0.057700 0.000000
vt 0.073950 -0.057700 0.000000
vt 0.136450 -0.557700 0.000000
vt 0.073950 -0.557700 0.000000
vt 0.557700 0.278309 0.000000
vt 0.057700 0.278309 0.000000
vt 0.557700 0.035012 0.000000
vt 0.057700 0.035012 0.000000
vt -0.557700 -0.278309 0.000000
vt -0.057700 -0.278309 0.000000
vt -0.557700 -0.035012 0.000000
vt -0.057700 -0.035012 0.000000
vt 0.557700 -0.443116 0.000000
vt 0.557700 -0.380616 0.000000
vt 0.313019 -0.276450 0.000000
vt 0.355572 -0.245200 0.000000
vt 0.313019 -0.213950 0.000000
vt 0.557700 -0.109783 0.000000
vt 0.557700 -0.047283 0.000000
vt 0.057700 -0.213950 0.000000
vt 0.057700 -0.276450 0.000000
vt -0.557700 -1.682764 0.000000
vt -0.057700 -1.682764 0.000000
vt -0.557700 -0.159978 0.000000
vt -0.057700 -0.159978 0.000000
vt 0.738669 -0.057700 0.000000
vt 0.074152 -0.057700 0.000000
vt 0.738669 -0.557700 0.000000
vt 0.074152 -0.557700 0.000000
vt 0.557700 1.682764 0.000000
vt 0.057700 1.682764 0.000000
vt 0.557700 0.159978 0.000000
vt 0.057700 0.159978 0.000000
vt 0.738669 -0.057700 0.000000
vt 0.074152 -0.057700 0.000000
vt 0.738669 -0.557700 0.000000
vt 0.074152 -0.557700 0.000000
vt -0.159978 -0.074152 0.000000
vt -1.682764 -0.074152 0.000000
vt -0.159978 -0.738669 0.000000
vt -1.682764 -0.738669 0.000000
vt -0.068200 -0.037700 0.000000
vt -0.073200 -0.037700 0.000000
vt -0.068200 -0.337700 0.000000
vt -0.073200 -0.337700 0.000000
vt 0.970347 0.337700 0.000000
vt 0.097192 0.337700 0.000000
vt 0.970347 0.037700 0.000000
vt 0.097192 0.037700 0.000000
vt -0.037700 2.207700 0.000000
vt -0.337700 2.207700 0.000000
vt -0.037700 0.207700 0.000000
vt -0.337700 0.207700 0.000000
vt 0.970347 0.337700 0.000000
vt 0.097192 0.337700 0.000000
vt 0.970347 0.037700 0.000000
vt 0.097192 0.037700 0.000000
vt -0.073200 -0.337700 0.000000
vt -0.068200 -0.337700 0.000000
vt -0.073200 -0.037700 0.000000
vt -0.068200 -0.037700 0.000000
vt 2.867700 -0.095200 0.000000
vt 2.324747 -0.527915 0.000000
vt 2.567700 -0.915200 0.000000
vt 2.310929 -0.558950 0.000000
vt 2.290961 -0.586434 0.000000
vt 2.867700 -0.090200 0.000000
vt 2.170200 -0.315200 0.000000
vt 2.203985 -0.318751 0.000000
vt 2.236295 -0.329249 0.000000
vt 0.267700 -0.090200 0.000000
vt 0.965200 -0.315200 0.000000
vt 0.267700 -0.095200 0.000000
vt 0.931414 -0.318751 0.000000
vt 0.899105 -0.329249 0.000000
vt 0.869685 -0.346235 0.000000
vt 0.844439 -0.368966 0.000000
vt 0.824471 -0.396450 0.000000
vt 0.810653 -0.427485 0.000000
vt 0.803590 -0.460714 0.000000
vt 0.803590 -0.494686 0.000000
vt 0.810653 -0.527915 0.000000
vt 0.567700 -0.915200 0.000000
vt 0.824471 -0.558950 0.000000
vt 0.844439 -0.586434 0.000000
vt 0.869685 -0.609165 0.000000
vt 0.899105 -0.626151 0.000000
vt 0.931414 -0.636649 0.000000
vt 0.965200 -0.640200 0.000000
vt 2.170200 -0.640200 0.000000
vt 2.203985 -0.636649 0.000000
vt 2.236295 -0.626151 0.000000
vt 2.265715 -0.609165 0.000000
vt 2.265715 -0.346235 0.000000
vt 2.290961 -0.368966 0.000000
vt 2.310929 -0.396450 0.000000
vt 2.324747 -0.427485 0.000000
vt 2.331810 -0.460714 0.000000
vt 2.331810 -0.494686 0.000000
vt 0.150000 0.255254 0.000000
vt -0.150000 0.255254 0.000000
vt 0.150000 0.221220 0.000000
vt -0.150000 0.221220 0.000000
vt -0.150000 0.187187 0.000000
vt 0.150000 0.187187 0.000000
vt -0.150000 0.153153 0.000000
vt 0.150000 0.153153 0.000000
vt -0.150000 0.119119 0.000000
vt 0.150000 0.119119 0.000000
vt -0.150000 0.085085 0.000000
vt 0.150000 0.085085 0.000000
vt -0.150000 0.051051 0.000000
vt 0.150000 0.051051 0.000000
vt -0.150000 0.017017 0.000000
vt 0.150000 0.017017 0.000000
vt -0.150000 -0.017017 0.000000
vt 0.150000 -0.017017 0.000000
vt -0.150000 -0.051051 0.000000
vt 0.150000 -0.051051 0.000000
vt -0.150000 -0.085085 0.000000
vt 0.150000 -0.085085 0.000000
vt -0.150000 -0.119119 0.000000
vt 0.150000 -0.119119 0.000000
vt -0.150000 -0.153153 0.000000
vt 0.150000 -0.153153 0.000000
vt -0.150000 -0.187187 0.000000
vt 0.150000 -0.187187 0.000000
vt -0.150000 -0.221220 0.000000
vt 0.150000 -0.221220 0.000000
vt 0.150000 -0.255254 0.000000
vt -0.150000 -0.255254 0.000000
vt 0.337700 -0.128200 0.000000
vt 0.037700 -0.128200 0.000000
vt 0.337700 -1.333200 0.000000
vt 0.037700 -1.333200 0.000000
vt 0.150000 -0.255254 0.000000
vt -0.150000 -0.255254 0.000000
vt 0.150000 -0.289288 0.000000
vt -0.150000 -0.289288 0.000000
vt -0.150000 -0.323322 0.000000
vt 0.150000 -0.323322 0.000000
vt -0.150000 -0.357356 0.000000
vt 0.150000 -0.357356 0.000000
vt -0.150000 -0.391390 0.000000
vt 0.150000 -0.391390 0.000000
vt -0.150000 -0.425424 0.000000
vt 0.150000 -0.425424 0.000000
vt -0.150000 -0.459458 0.000000
vt 0.150000 -0.459458 0.000000
vt -0.150000 -0.493492 0.000000
vt 0.150000 -0.493492 0.000000
vt -0.150000 -0.527526 0.000000
vt 0.150000 -0.527526 0.000000
vt -0.150000 -0.561560 0.000000
vt 0.150000 -0.561560 0.000000
vt -0.150000 -0.595594 0.000000
vt 0.150000 -0.595594 0.000000
vt -0.150000 -0.629628 0.000000
vt 0.150000 -0.629628 0.000000
vt -0.150000 -0.663661 0.000000
vt 0.150000 -0.663661 0.000000
vt -0.150000 -0.697695 0.000000
vt 0.150000 -0.697695 0.000000
vt -0.150000 -0.731729 0.000000
vt 0.150000 -0.731729 0.000000
vt 0.150000 -0.765763 0.000000
vt -0.150000 -0.765763 0.000000
vt -0.337700 0.128200 0.000000
vt -0.037700 0.128200 0.000000
vt -0.337700 1.333200 0.000000
vt -0.037700 1.333200 0.000000
vt -0.068200 -0.037700 0.000000
vt -0.073200 -0.037700 0.000000
vt -0.068200 -0.337700 0.000000
vt -0.073200 -0.337700 0.000000
vt 0.970347 0.337700 0.000000
vt 0.097192 0.337700 0.000000
vt 0.970347 0.037700 0.000000
vt 0.097192 0.037700 0.000000
vt 0.337700 -0.207700 0.000000
vt 0.037700 -0.207700 0.000000
vt 0.337700 -2.207700 0.000000
vt 0.037700 -2.207700 0.000000
vt 2.567700 -0.090200 0.000000
vt 2.324747 -0.477485 0.000000
vt 2.867700 -0.910200 0.000000
vt 2.331810 -0.510714 0.000000
vt 2.331810 -0.544686 0.000000
vt 0.567700 -0.090200 0.000000
vt 2.170200 -0.365200 0.000000
vt 2.203985 -0.368751 0.000000
vt 2.236295 -0.379249 0.000000
vt 0.267700 -0.910200 0.000000
vt 0.810653 -0.477485 0.000000
vt 0.824471 -0.446450 0.000000
vt 0.844439 -0.418966 0.000000
vt 0.267700 -0.915200 0.000000
vt 0.965200 -0.690200 0.000000
vt 0.931414 -0.686649 0.000000
vt 0.899105 -0.676151 0.000000
vt 2.867700 -0.915200 0.000000
vt 2.170200 -0.690200 0.000000
vt 2.203985 -0.686649 0.000000
vt 2.236295 -0.676151 0.000000
vt 2.265715 -0.659165 0.000000
vt 2.290961 -0.636434 0.000000
vt 2.310929 -0.608950 0.000000
vt 2.324747 -0.577915 0.000000
vt 0.869685 -0.659165 0.000000
vt 0.844439 -0.636434 0.000000
vt 0.824471 -0.608950 0.000000
vt 0.810653 -0.577915 0.000000
vt 0.803590 -0.544686 0.000000
vt 0.803590 -0.510714 0.000000
vt 0.869685 -0.396235 0.000000
vt 0.899105 -0.379249 0.000000
vt 0.931414 -0.368751 0.000000
vt 0.965200 -0.365200 0.000000
vt 2.265715 -0.396235 0.000000
vt 2.290961 -0.418966 0.000000
vt 2.310929 -0.446450 0.000000
vt 0.337700 -0.128200 0.000000
vt 0.037700 -0.128200 0.000000
vt 0.337700 -1.333200 0.000000
vt 0.037700 -1.333200 0.000000
vt 0.150000 -0.255254 0.000000
vt -0.150000 -0.255254 0.000000
vt 0.150000 -0.289288 0.000000
vt -0.150000 -0.289288 0.000000
vt -0.150000 -0.323322 0.000000
vt 0.150000 -0.323322 0.000000
vt -0.150000 -0.357356 0.000000
vt 0.150000 -0.357356 0.000000
vt -0.150000 -0.391390 0.000000
vt 0.150000 -0.391390 0.000000
vt -0.150000 -0.425424 0.000000
vt 0.150000 -0.425424 0.000000
vt -0.150000 -0.459458 0.000000
vt 0.150000 -0.459458 0.000000
vt -0.150000 -0.493492 0.000000
vt 0.150000 -0.493492 0.000000
vt -0.150000 -0.527526 0.000000
vt 0.150000 -0.527526 0.000000
vt -0.150000 -0.561560 0.000000
vt 0.150000 -0.561560 0.000000
vt -0.150000 -0.595594 0.000000
vt 0.150000 -0.595594 0.000000
vt -0.150000 -0.629628 0.000000
vt 0.150000 -0.629628 0.000000
vt -0.150000 -0.663661 0.000000
vt 0.150000 -0.663661 0.000000
vt -0.150000 -0.697695 0.000000
vt 0.150000 -0.697695 0.000000
vt -0.150000 -0.731729 0.000000
vt 0.150000 -0.731729 0.000000
vt 0.150000 -0.765763 0.000000
vt -0.150000 -0.765763 0.000000
vt -0.337700 0.128200 0.000000
vt -0.037700 0.128200 0.000000
vt -0.337700 1.333200 0.000000
vt -0.037700 1.333200 0.000000
vt 0.150000 0.255254 0.000000
vt -0.150000 0.255254 0.000000
vt 0.150000 0.221220 0.000000
vt -0.150000 0.221220 0.000000
vt -0.150000 0.187187 0.000000
vt 0.150000 0.187187 0.000000
vt -0.150000 0.153153 0.000000
vt 0.150000 0.153153 0.000000
vt -0.150000 0.119119 0.000000
vt 0.150000 0.119119 0.000000
vt -0.150000 0.085085 0.000000
vt 0.150000 0.085085 0.000000
vt -0.150000 0.051051 0.000000
vt 0.150000 0.051051 0.000000
vt -0.150000 0.017017 0.000000
vt 0.150000 0.017017 0.000000
vt -0.150000 -0.017017 0.000000
vt 0.150000 -0.017017 0.000000
vt -0.150000 -0.051051 0.000000
vt 0.150000 -0.051051 0.000000
vt -0.150000 -0.085085 0.000000
vt 0.150000 -0.085085 0.000000
vt -0.150000 -0.119119 0.000000
vt 0.150000 -0.119119 0.000000
vt -0.150000 -0.153153 0.000000
vt 0.150000 -0.153153 0.000000
vt -0.150000 -0.187187 0.000000
vt 0.150000 -0.187187 0.000000
vt -0.150000 -0.221220 0.000000
vt 0.150000 -0.221220 0.000000
vt 0.150000 -0.255254 0.000000
vt -0.150000 -0.255254 0.000000
vn 0.000000 0.000000 -100.000000
vn 0.000000 0.000000 -100.000000
vn 0.000000 0.000000 -100.000000
vn 0.000000 0.000000 -100.000000
vn 0.000000 0.000000 -100.000000
vn 0.000000 0.000000 -100.000000
vn 0.000000 0.000000 -100.000000
vn 0.000000 0.000000 -100.000000
vn 0.000000 0.000000 -100.000000
vn 0.000000 0.000000 -100.000000
vn 0.000000 0.000000 -100.000000
vn 0.000000 0.000000 -100.000000
vn 0.000000 0.000000 -100.000000
vn 0.000000 0.000000 -100.000000
vn 0.000000 0.000000 -100.000000
vn 0.000000 0.000000 -100.000000
vn 0.000000 0.000000 -100.000000
vn 0.000000 0.000000 -100.000000
vn 0.000000 0.000000 -100.000000
vn 0.000000 0.000000 -100.000000
vn 0.000000 0.000000 -100.000000
vn 0.000000 0.000000 -100.000000
vn 0.000000 0.000000 -100.000000
vn 0.000000 0.000000 -100.000000
vn 0.000000 0.000000 -100.000000
vn 0.000000 0.000000 -100.000000
vn 0.000000 0.000000 -100.000000
vn 0.000000 0.000000 -100.000000
vn 0.000000 0.000000 -100.000000
vn 0.000000 0.000000 -100.000000
vn 0.000000 0.000000 -100.000000
vn 0.000000 0.000000 -100.000000
vn 0.000000 0.000000 -100.000000
vn 0.000000 0.000000 -100.000000
vn 0.000000 0.000000 -100.000000
vn 0.000000 0.000000 -100.000000
vn 0.000000 0.000000 -100.000000
vn 0.000000 0.000000 -100.000000
vn 0.000000 0.000000 -100.000000
vn 0.000000 0.000000 -100.000000
vn 0.000000 0.000000 -100.000000
vn 0.000000 0.000000 -100.000000
vn 0.000000 0.000000 -100.000000
vn 0.000000 0.000000 -100.000000
vn 0.000000 0.000000 -100.000000
vn 0.000000 0.000000 -100.000000
vn 0.000000 0.000000 -100.000000
vn 0.000000 0.000000 -100.000000
vn 0.000000 0.000000 -100.000000
vn 0.000000 0.000000 -100.000000
vn 0.000000 0.000000 -100.000000
vn 0.000000 0.000000 -100.000000
vn 0.000000 0.000000 -100.000000
vn 0.000000 0.000000 -100.000000
vn 0.000000 0.000000 -100.000000
vn 0.000000 0.000000 -100.000000
vn 0.000000 0.000000 -100.000000
vn 0.000000 0.000000 -100.000000
vn 0.000000 0.000000 -100.000000
vn 0.000000 0.000000 -100.000000
vn 0.000000 0.000000 -100.000000
vn 0.000000 0.000000 -100.000000
vn 0.000000 0.000000 -100.000000
vn 0.000000 0.000000 -100.000000
vn 0.000000 0.000000 -100.000000
vn 0.000000 0.000000 -100.000000
vn 0.000000 0.000000 -100.000000
vn 0.000000 0.000000 -100.000000
vn 0.000000 0.000000 -100.000000
vn 0.000000 0.000000 -100.000000
vn 0.000000 0.000000 -100.000000
vn 0.000000 0.000000 -100.000000
vn 0.000000 0.000000 -100.000000
vn 0.000000 0.000000 -100.000000
vn 0.000000 0.000000 -100.000000
vn 0.000000 0.000000 -100.000000
vn 0.000000 0.000000 -100.000000
vn 0.000000 0.000000 -100.000000
vn 0.000000 0.000000 -100.000000
vn 0.000000 0.000000 -100.000000
vn 93.912285 34.358153 0.000000
vn 93.912285 34.358153 0.000000
vn 93.912285 34.358153 0.000000
vn 93.912285 34.358153 0.000000
vn 100.000000 0.000000 0.000000
vn 100.000000 0.000000 0.000000
vn 100.000000 0.000000 0.000000
vn 100.000000 0.000000 0.000000
vn 0.000000 100.000000 0.000000
vn 0.000000 100.000000 0.000000
vn 0.000000 100.000000 0.000000
vn 0.000000 100.000000 0.000000
vn 0.000000 100.000000 0.000000
vn 0.000000 100.000000 0.000000
vn 0.000000 100.000000 0.000000
vn 0.000000 100.000000 0.000000
vn 100.000000 0.000000 0.000000
vn 100.000000 0.000000 0.000000
vn 100.000000 0.000000 0.000000
vn 100.000000 0.000000 0.000000
vn 0.000000 -100.000000 0.000000
vn 0.000000 -100.000000 0.000000
vn 0.000000 -100.000000 0.000000
vn 0.000000 -100.000000 0.000000
vn 0.000000 -100.000000 0.000000
vn 0.000000 -100.000000 0.000000
vn 0.000000 -100.000000 0.000000
vn 0.000000 -100.000000 0.000000
vn -100.000000 0.000000 0.000000
vn -100.000000 0.000000 0.000000
vn -100.000000 0.000000 0.000000
vn -100.000000 0.000000 0.000000
vn -100.000000 0.000000 0.000000
vn -100.000000 0.000000 0.000000
vn -100.000000 0.000000 0.000000
vn -100.000000 0.000000 0.000000
vn 0.000000 0.000000 100.000000
vn 0.000000 0.000000 100.000000
vn 0.000000 0.000000 100.000000
vn 0.000000 0.000000 100.000000
vn 0.000000 0.000000 100.000000
vn 0.000000 0.000000 100.000000
vn 0.000000 0.000000 100.000000
vn 0.000000 0.000000 100.000000
vn 0.000000 0.000000 100.000000
vn 0.000000 0.000000 100.000000
vn 0.000000 0.000000 100.000000
vn 0.000000 0.000000 100.000000
vn 0.000000 0.000000 100.000000
vn 0.000000 0.000000 100.000000
vn 0.000000 0.000000 100.000000
vn 0.000000 0.000000 100.000000
vn 0.000000 0.000000 100.000000
vn 0.000000 0.000000 100.000000
vn 0.000000 0.000000 100.000000
vn 0.000000 0.000000 100.000000
vn 0.000000 0.000000 100.000000
vn 0.000000 0.000000 100.000000
vn 0.000000 0.000000 100.000000
vn 0.000000 0.000000 100.000000
vn 0.000000 0.000000 100.000000
vn 0.000000 0.000000 100.000000
vn 0.000000 0.000000 100.000000
vn 0.000000 0.000000 100.000000
vn 0.000000 0.000000 100.000000
vn 100.000000 0.000000 0.000000
vn 100.000000 0.000000 0.000000
vn 100.000000 0.000000 0.000000
vn 100.000000 0.000000 0.000000
vn 0.000000 -100.000000 0.000000
vn 0.000000 -100.000000 0.000000
vn 0.000000 -100.000000 0.000000
vn 0.000000 -100.000000 0.000000
vn -100.000000 0.000000 0.000000
vn -100.000000 0.000000 0.000000
vn -100.000000 0.000000 0.000000
vn -100.000000 0.000000 0.000000
vn 0.000000 100.000000 0.000000
vn 0.000000 100.000000 0.000000
vn 0.000000 100.000000 0.000000
vn 0.000000 100.000000 0.000000
vn 0.000000 0.000000 100.000000
vn 0.000000 0.000000 100.000000
vn 0.000000 0.000000 100.000000
vn 0.000000 0.000000 100.000000
vn 100.000000 0.000000 0.000000
vn 100.000000 0.000000 0.000000
vn 100.000000 0.000000 0.000000
vn 100.000000 0.000000 0.000000
vn 58.510087 -81.096053 0.000000
vn 58.510087 -81.096053 0.000000
vn 58.510087 -81.096053 0.000000
vn 58.510087 -81.096053 0.000000
vn 58.510087 81.096053 0.000000
vn 58.510087 81.096053 0.000000
vn 58.510087 81.096053 0.000000
vn 58.510087 81.096053 0.000000
vn 100.000000 0.000000 0.000000
vn 100.000000 0.000000 0.000000
vn 100.000000 0.000000 0.000000
vn 100.000000 0.000000 0.000000
vn -56.991449 -82.170401 0.000000
vn -56.991449 -82.170401 0.000000
vn -56.991449 -82.170401 0.000000
vn -56.991449 -82.170401 0.000000
vn 58.629399 -81.009836 0.000000
vn 58.629399 -81.009836 0.000000
vn 58.629399 -81.009836 0.000000
vn 58.629399 -81.009836 0.000000
vn -100.000000 0.000000 0.000000
vn -100.000000 0.000000 0.000000
vn -100.000000 0.000000 0.000000
vn -100.000000 0.000000 0.000000
vn -58.510087 81.096053 0.000000
vn -58.510087 81.096053 0.000000
vn -58.510087 81.096053 0.000000
vn -58.510087 81.096053 0.000000
vn -58.510087 -81.096053 0.000000
vn -58.510087 -81.096053 0.000000
vn -58.510087 -81.096053 0.000000
vn -58.510087 -81.096053 0.000000
vn -100.000000 0.000000 0.000000
vn -100.000000 0.000000 0.000000
vn -100.000000 0.000000 0.000000
vn -100.000000 0.000000 0.000000
vn 58.629399 81.009836 0.000000
vn 58.629399 81.009836 0.000000
vn 58.629399 81.009836 0.000000
vn 58.629399 81.009836 0.000000
vn -56.991449 82.170401 0.000000
vn -56.991449 82.170401 0.000000
vn -56.991449 82.170401 0.000000
vn -56.991449 82.170401 0.000000
vn 0.000000 0.000000 100.000000
vn 0.000000 0.000000 100.000000
vn 0.000000 0.000000 100.000000
vn 0.000000 0.000000 100.000000
vn 0.000000 0.000000 100.000000
vn 0.000000 0.000000 100.000000
vn 0.000000 0.000000 100.000000
vn 0.000000 0.000000 100.000000
vn 0.000000 0.000000 100.000000
vn 0.000000 0.000000 100.000000
vn 0.000000 0.000000 100.000000
vn 0.000000 0.000000 100.000000
vn -100.000000 0.000000 0.000000
vn -100.000000 0.000000 0.000000
vn -100.000000 0.000000 0.000000
vn -100.000000 0.000000 0.000000
vn 56.296511 82.648066 -0.000000
vn 56.296511 82.648066 -0.000000
vn 56.296511 82.648066 -0.000000
vn 56.296511 82.648066 -0.000000
vn 0.000000 100.000000 0.000000
vn 0.000000 100.000000 0.000000
vn 0.000000 100.000000 0.000000
vn 0.000000 100.000000 0.000000
vn 100.000000 0.000000 0.000000
vn 100.000000 0.000000 0.000000
vn 100.000000 0.000000 0.000000
vn 100.000000 0.000000 0.000000
vn 0.000000 -100.000000 0.000000
vn 0.000000 -100.000000 0.000000
vn 0.000000 -100.000000 0.000000
vn 0.000000 -100.000000 0.000000
vn 56.296511 -82.648066 0.000000
vn 56.296511 -82.648066 0.000000
vn 56.296511 -82.648066 0.000000
vn 56.296511 -82.648066 0.000000
vn -100.000000 0.000000 0.000000
vn -100.000000 0.000000 0.000000
vn -100.000000 0.000000 0.000000
vn -100.000000 0.000000 0.000000
vn -55.659074 83.078683 -0.000000
vn -55.659074 83.078683 -0.000000
vn -55.659074 83.078683 -0.000000
vn -55.659074 83.078683 -0.000000
vn -55.659074 -83.078683 -0.000000
vn -55.659074 -83.078683 -0.000000
vn -55.659074 -83.078683 -0.000000
vn -55.659074 -83.078683 -0.000000
vn 0.000000 0.000000 100.000000
vn 0.000000 0.000000 100.000000
vn 0.000000 0.000000 100.000000
vn 0.000000 0.000000 100.000000
vn 0.000000 0.000000 100.000000
vn 0.000000 0.000000 100.000000
vn 0.000000 0.000000 100.000000
vn 0.000000 0.000000 100.000000
vn 0.000000 0.000000 100.000000
vn 0.000000 0.000000 100.000000
vn 0.000000 0.000000 100.000000
vn 0.000000 0.000000 100.000000
vn 0.000000 0.000000 100.000000
vn 0.000000 -100.000000 0.000000
vn 0.000000 -100.000000 0.000000
vn 0.000000 -100.000000 0.000000
vn 0.000000 -100.000000 0.000000
vn 0.000000 0.000000 -100.000000
vn 0.000000 0.000000 -100.000000
vn 0.000000 0.000000 -100.000000
vn 0.000000 0.000000 -100.000000
vn 0.000000 100.000000 0.000000
vn 0.000000 100.000000 0.000000
vn 0.000000 100.000000 0.000000
vn 0.000000 100.000000 0.000000
vn -100.000000 0.000000 0.000000
vn -100.000000 0.000000 0.000000
vn -100.000000 0.000000 0.000000
vn -100.000000 0.000000 0.000000
vn 100.000000 0.000000 0.000000
vn 100.000000 0.000000 0.000000
vn 100.000000 0.000000 0.000000
vn 100.000000 0.000000 0.000000
vn 93.912285 -34.358153 0.000000
vn 93.912285 -34.358153 0.000000
vn 93.912285 -34.358153 0.000000
vn 93.912285 -34.358153 0.000000
vn 0.000000 -100.000000 0.000000
vn 0.000000 -100.000000 0.000000
vn 0.000000 -100.000000 0.000000
vn 0.000000 -100.000000 0.000000
vn -93.912285 -34.358153 0.000000
vn -93.912285 -34.358153 0.000000
vn -93.912285 -34.358153 0.000000
vn -93.912285 -34.358153 0.000000
vn -100.000000 0.000000 0.000000
vn -100.000000 0.000000 0.000000
vn -100.000000 0.000000 0.000000
vn -100.000000 0.000000 0.000000
vn 0.000000 0.000000 100.000000
vn 0.000000 0.000000 100.000000
vn 0.000000 0.000000 100.000000
vn 0.000000 0.000000 100.000000
vn 0.000000 0.000000 100.000000
vn 0.000000 0.000000 100.000000
vn 0.000000 0.000000 100.000000
vn 0.000000 0.000000 100.000000
vn 0.000000 0.000000 100.000000
vn 0.000000 0.000000 100.000000
vn 0.000000 0.000000 100.000000
vn 0.000000 0.000000 100.000000
vn 0.000000 0.000000 100.000000
vn 0.000000 0.000000 100.000000
vn 0.000000 0.000000 100.000000
vn 0.000000 0.000000 100.000000
vn 0.000000 0.000000 100.000000
vn 0.000000 0.000000 100.000000
vn 0.000000 0.000000 100.000000
vn 0.000000 0.000000 100.000000
vn 0.000000 0.000000 100.000000
vn 0.000000 0.000000 100.000000
vn 0.000000 0.000000 100.000000
vn 0.000000 0.000000 100.000000
vn 0.000000 0.000000 100.000000
vn 0.000000 0.000000 100.000000
vn 0.000000 0.000000 100.000000
vn 0.000000 0.000000 100.000000
vn 0.000000 0.000000 100.000000
vn 0.000000 0.000000 100.000000
vn 0.000000 0.000000 100.000000
vn 0.000000 0.000000 100.000000
vn 0.000000 0.000000 100.000000
vn 0.000000 0.000000 100.000000
vn 0.000000 0.000000 100.000000
vn 0.000000 0.000000 100.000000
vn 0.000000 0.000000 100.000000
vn 0.000000 0.000000 100.000000
vn -0.000000 -100.000000 0.000000
vn -0.000000 -100.000000 0.000000
vn -20.791169 -97.814760 0.000000
vn -20.791169 -97.814760 0.000000
vn -40.673664 -91.354546 0.000000
vn -40.673664 -91.354546 0.000000
vn -58.778525 -80.901699 0.000000
vn -58.778525 -80.901699 0.000000
vn -74.314483 -66.913061 0.000000
vn -74.314483 -66.913061 0.000000
vn -86.602540 -50.000000 0.000000
vn -86.602540 -50.000000 0.000000
vn -95.105652 -30.901699 0.000000
vn -95.105652 -30.901699 0.000000
vn -99.452190 -10.452846 0.000000
vn -99.452190 -10.452846 0.000000
vn -99.452190 10.452846 0.000000
vn -99.452190 10.452846 0.000000
vn -95.105652 30.901699 0.000000
vn -95.105652 30.901699 0.000000
vn -86.602540 50.000000 0.000000
vn -86.602540 50.000000 0.000000
vn -74.314483 66.913061 0.000000
vn -74.314483 66.913061 0.000000
vn -58.778525 80.901699 0.000000
vn -58.778525 80.901699 0.000000
vn -40.673664 91.354546 0.000000
vn -40.673664 91.354546 0.000000
vn -20.791169 97.814760 0.000000
vn -20.791169 97.814760 0.000000
vn -0.000000 100.000000 0.000000
vn -0.000000 100.000000 0.000000
vn 0.000000 100.000000 0.000000
vn 0.000000 100.000000 0.000000
vn 20.791169 97.814760 0.000000
vn 20.791169 97.814760 0.000000
vn 40.673664 91.354546 0.000000
vn 40.673664 91.354546 0.000000
vn 58.778525 80.901699 0.000000
vn 58.778525 80.901699 0.000000
vn 74.314483 66.913061 0.000000
vn 74.314483 66.913061 0.000000
vn 86.602540 50.000000 0.000000
vn 86.602540 50.000000 0.000000
vn 95.105652 30.901699 0.000000
vn 95.105652 30.901699 0.000000
vn 99.452190 10.452846 0.000000
vn 99.452190 10.452846 0.000000
vn 99.452190 -10.452846 0.000000
vn 99.452190 -10.452846 0.000000
vn 95.105652 -30.901699 0.000000
vn 95.105652 -30.901699 0.000000
vn 86.602540 -50.000000 0.000000
vn 86.602540 -50.000000 0.000000
vn 74.314483 -66.913061 0.000000
vn 74.314483 -66.913061 0.000000
vn 58.778525 -80.901699 0.000000
vn 58.778525 -80.901699 0.000000
vn 40.673664 -91.354546 0.000000
vn 40.673664 -91.354546 0.000000
vn 20.791169 -97.814760 0.000000
vn 20.791169 -97.814760 0.000000
vn 0.000000 -100.000000 0.000000
vn 0.000000 -100.000000 0.000000
vn -100.000000 0.000000 0.000000
vn -100.000000 0.000000 0.000000
vn -100.000000 0.000000 0.000000
vn -100.000000 0.000000 0.000000
vn -93.912285 34.358153 0.000000
vn -93.912285 34.358153 0.000000
vn -93.912285 34.358153 0.000000
vn -93.912285 34.358153 0.000000
vn 0.000000 100.000000 0.000000
vn 0.000000 100.000000 0.000000
vn 0.000000 100.000000 0.000000
vn 0.000000 100.000000 0.000000
vn 0.000000 0.000000 100.000000
vn 0.000000 0.000000 100.000000
vn 0.000000 0.000000 100.000000
vn 0.000000 0.000000 100.000000
vn 0.000000 0.000000 100.000000
vn 0.000000 0.000000 100.000000
vn 0.000000 0.000000 100.000000
vn 0.000000 0.000000 100.000000
vn 0.000000 0.000000 100.000000
vn 0.000000 0.000000 100.000000
vn 0.000000 0.000000 100.000000
vn 0.000000 0.000000 100.000000
vn 0.000000 0.000000 100.000000
vn 0.000000 0.000000 100.000000
vn 0.000000 0.000000 100.000000
vn 0.000000 0.000000 100.000000
vn 0.000000 0.000000 100.000000
vn 0.000000 0.000000 100.000000
vn 0.000000 0.000000 100.000000
vn 0.000000 0.000000 100.000000
vn 0.000000 0.000000 100.000000
vn 0.000000 0.000000 100.000000
vn 0.000000 0.000000 100.000000
vn 0.000000 0.000000 100.000000
vn 0.000000 0.000000 100.000000
vn 0.000000 0.000000 100.000000
vn 0.000000 0.000000 100.000000
vn 0.000000 0.000000 100.000000
vn 0.000000 0.000000 100.000000
vn 0.000000 0.000000 100.000000
vn 0.000000 0.000000 100.000000
vn 0.000000 0.000000 100.000000
vn 0.000000 0.000000 100.000000
vn 0.000000 0.000000 100.000000
vn 0.000000 0.000000 100.000000
vn 0.000000 0.000000 100.000000
vn 0.000000 0.000000 100.000000
vn 0.000000 0.000000 100.000000
vn 0.000000 100.000000 0.000000
vn 0.000000 100.000000 0.000000
vn 0.000000 100.000000 0.000000
vn 0.000000 100.000000 0.000000
vn 20.791169 97.814760 0.000000
vn 20.791169 97.814760 0.000000
vn 40.673664 91.354546 0.000000
vn 40.673664 91.354546 0.000000
vn 58.778525 80.901699 0.000000
vn 58.778525 80.901699 0.000000
vn 74.314483 66.913061 0.000000
vn 74.314483 66.913061 0.000000
vn 86.602540 50.000000 0.000000
vn 86.602540 50.000000 0.000000
vn 95.105652 30.901699 0.000000
vn 95.105652 30.901699 0.000000
vn 99.452190 10.452846 0.000000
vn 99.452190 10.452846 0.000000
vn 99.452190 -10.452846 0.000000
vn 99.452190 -10.452846 0.000000
vn 95.105652 -30.901699 0.000000
vn 95.105652 -30.901699 0.000000
vn 86.602540 -50.000000 0.000000
vn 86.602540 -50.000000 0.000000
vn 74.314483 -66.913061 0.000000
vn 74.314483 -66.913061 0.000000
vn 58.778525 -80.901699 0.000000
vn 58.778525 -80.901699 0.000000
vn 40.673664 -91.354546 0.000000
vn 40.673664 -91.354546 0.000000
vn 20.791169 -97.814760 0.000000
vn 20.791169 -97.814760 0.000000
vn 0.000000 -100.000000 0.000000
vn 0.000000 -100.000000 0.000000
vn 0.000000 -100.000000 0.000000
vn 0.000000 -100.000000 0.000000
vn -20.791169 -97.814760 0.000000
vn -20.791169 -97.814760 0.000000
vn -40.673664 -91.354546 0.000000
vn -40.673664 -91.354546 0.000000
vn -58.778525 -80.901699 0.000000
vn -58.778525 -80.901699 0.000000
vn -74.314483 -66.913061 0.000000
vn -74.314483 -66.913061 0.000000
vn -86.602540 -50.000000 0.000000
vn -86.602540 -50.000000 0.000000
vn -95.105652 -30.901699 0.000000
vn -95.105652 -30.901699 0.000000
vn -99.452190 -10.452846 0.000000
vn -99.452190 -10.452846 0.000000
vn -99.452190 10.452846 0.000000
vn -99.452190 10.452846 0.000000
vn -95.105652 30.901699 0.000000
vn -95.105652 30.901699 0.000000
vn -86.602540 50.000000 0.000000
vn -86.602540 50.000000 0.000000
vn -74.314483 66.913061 0.000000
vn -74.314483 66.913061 0.000000
vn -58.778525 80.901699 0.000000
vn -58.778525 80.901699 0.000000
vn -40.673664 91.354546 0.000000
vn -40.673664 91.354546 0.000000
vn -20.791169 97.814760 0.000000
vn -20.791169 97.814760 0.000000
usemtl Steel_-_Satin
f 2/1/1 71/2/2 1/3/3
f 1/3/3 71/2/2 72/4/4
f 1/3/3 72/4/4 73/5/5
f 3/6/6 5/7/7 2/1/1
f 2/1/1 5/7/7 48/8/8
f 2/1/1 48/8/8 66/9/9
f 66/9/9 48/8/8 17/10/10
f 66/9/9 17/10/10 65/11/11
f 65/11/11 17/10/10 13/12/12
f 65/11/11 13/12/12 64/13/13
f 64/13/13 13/12/12 63/14/14
f 63/14/14 13/12/12 62/15/15
f 62/15/15 13/12/12 61/16/16
f 61/16/16 13/12/12 60/17/17
f 60/17/17 13/12/12 14/18/18
f 60/17/17 14/18/18 59/19/19
f 59/19/19 14/18/18 58/20/20
f 58/20/20 14/18/18 15/21/21
f 58/20/20 15/21/21 57/22/22
f 57/22/22 15/21/21 56/23/23
f 56/23/23 15/21/21 55/24/24
f 55/24/24 15/21/21 54/25/25
f 54/25/25 15/21/21 53/26/26
f 53/26/26 15/21/21 52/27/27
f 52/27/27 15/21/21 51/28/28
f 51/28/28 15/21/21 50/29/29
f 50/29/29 15/21/21 16/30/30
f 50/29/29 16/30/30 49/31/31
f 49/31/31 16/30/30 80/32/32
f 80/32/32 16/30/30 79/33/33
f 79/33/33 16/30/30 78/34/34
f 78/34/34 16/30/30 77/35/35
f 77/35/35 16/30/30 76/36/36
f 76/36/36 16/30/30 75/37/37
f 75/37/37 16/30/30 74/38/38
f 74/38/38 16/30/30 73/5/5
f 73/5/5 16/30/30 1/3/3
f 3/6/6 4/39/39 5/7/7
f 6/40/40 43/41/41 5/7/7
f 5/7/7 43/41/41 44/42/42
f 5/7/7 44/42/42 45/43/43
f 7/44/44 41/45/45 6/40/40
f 6/40/40 41/45/45 42/46/46
f 6/40/40 42/46/46 43/41/41
f 8/47/47 33/48/48 7/44/44
f 7/44/44 33/48/48 34/49/49
f 7/44/44 34/49/49 35/50/50
f 9/51/51 24/52/52 8/47/47
f 8/47/47 24/52/52 25/53/53
f 8/47/47 25/53/53 26/54/54
f 10/55/55 22/56/56 9/51/51
f 9/51/51 22/56/56 23/57/57
f 9/51/51 23/57/57 24/52/52
f 11/58/58 13/12/12 10/55/55
f 10/55/55 13/12/12 17/10/10
f 10/55/55 17/10/10 18/59/59
f 11/58/58 12/60/60 13/12/12
f 18/59/59 19/61/61 10/55/55
f 10/55/55 19/61/61 20/62/62
f 10/55/55 20/62/62 21/63/63
f 21/63/63 22/56/56 10/55/55
f 26/54/54 27/64/64 8/47/47
f 8/47/47 27/64/64 28/65/65
f 8/47/47 28/65/65 29/66/66
f 29/66/66 30/67/67 8/47/47
f 8/47/47 30/67/67 31/68/68
f 8/47/47 31/68/68 32/69/69
f 32/69/69 33/48/48 8/47/47
f 35/50/50 36/70/70 7/44/44
f 7/44/44 36/70/70 37/71/71
f 7/44/44 37/71/71 38/72/72
f 38/72/72 39/73/73 7/44/44
f 7/44/44 39/73/73 40/74/74
f 7/44/44 40/74/74 41/45/45
f 45/43/43 46/75/75 5/7/7
f 5/7/7 46/75/75 47/76/76
f 5/7/7 47/76/76 48/8/8
f 66/9/9 67/77/77 2/1/1
f 2/1/1 67/77/77 68/78/78
f 2/1/1 68/78/78 69/79/79
f 69/79/79 70/80/80 2/1/1
f 2/1/1 70/80/80 71/2/2
f 1/81/81 16/82/82 82/83/83
f 82/83/83 16/82/82 81/84/84
f 82/85/85 83/86/86 1/87/87
f 1/87/87 83/86/86 2/88/88
f 2/89/89 83/90/90 3/91/91
f 3/91/91 83/90/90 86/92/92
f 86/92/92 83/90/90 85/93/93
f 85/93/93 83/90/90 84/94/94
f 85/93/93 84/94/94 12/95/95
f 12/95/95 84/94/94 13/96/96
f 4/97/97 3/98/98 87/99/99
f 87/99/99 3/98/98 86/100/100
f 10/101/101 88/102/102 11/103/103
f 11/103/103 88/102/102 90/104/104
f 90/104/104 88/102/102 89/105/105
f 90/104/104 89/105/105 87/106/106
f 87/106/106 89/105/105 4/107/107
f 4/107/107 89/105/105 5/108/108
f 11/109/109 91/110/110 12/111/111
f 12/111/111 91/110/110 92/112/112
f 12/111/111 92/112/112 85/113/113
f 85/113/113 92/112/112 93/114/114
f 85/113/113 93/114/114 90/115/115
f 90/115/115 93/114/114 11/109/109
f 11/109/109 93/114/114 94/116/116
f 11/109/109 94/116/116 91/110/110
f 90/117/117 102/118/118 85/119/119
f 85/119/119 102/118/118 95/120/120
f 85/119/119 95/120/120 86/121/121
f 86/121/121 95/120/120 114/122/122
f 86/121/121 114/122/122 116/123/123
f 116/123/123 114/122/122 115/124/124
f 87/125/125 108/126/126 90/117/117
f 90/117/117 108/126/126 110/127/127
f 90/117/117 110/127/127 99/128/128
f 86/121/121 111/129/129 87/125/125
f 87/125/125 111/129/129 97/130/130
f 87/125/125 97/130/130 108/126/126
f 108/126/126 97/130/130 98/131/131
f 108/126/126 98/131/131 107/132/132
f 107/132/132 98/131/131 106/133/133
f 106/133/133 98/131/131 105/134/134
f 105/134/134 98/131/131 104/135/135
f 104/135/135 98/131/131 95/120/120
f 104/135/135 95/120/120 102/118/118
f 114/122/122 95/120/120 113/136/136
f 113/136/136 95/120/120 96/137/137
f 113/136/136 96/137/137 112/138/138
f 112/138/138 96/137/137 111/129/129
f 111/129/129 96/137/137 97/130/130
f 100/139/139 101/140/140 99/128/128
f 99/128/128 101/140/140 90/117/117
f 101/140/140 102/118/118 90/117/117
f 102/118/118 103/141/141 104/135/135
f 108/126/126 109/142/142 110/127/127
f 116/123/123 117/143/143 86/121/121
f 86/121/121 117/143/143 119/144/144
f 86/121/121 119/144/144 111/129/129
f 117/143/143 118/145/145 119/144/144
f 120/146/146 121/147/147 98/148/148
f 98/148/148 121/147/147 95/149/149
f 95/150/150 121/151/151 96/152/152
f 96/152/152 121/151/151 122/153/153
f 122/154/154 123/155/155 96/156/156
f 96/156/156 123/155/155 97/157/157
f 97/158/158 123/159/159 98/160/160
f 98/160/160 123/159/159 120/161/161
f 120/162/162 123/163/163 121/164/164
f 121/164/164 123/163/163 122/165/165
f 124/166/166 125/167/167 110/168/168
f 110/168/168 125/167/167 99/169/169
f 99/170/170 125/171/171 100/172/172
f 100/172/172 125/171/171 126/173/173
f 100/174/174 126/175/175 101/176/176
f 101/176/176 126/175/175 127/177/177
f 127/178/178 128/179/179 101/180/180
f 101/180/180 128/179/179 102/181/181
f 102/182/182 128/183/183 103/184/184
f 103/184/184 128/183/183 129/185/185
f 103/186/186 129/187/187 104/188/188
f 104/188/188 129/187/187 130/189/189
f 130/190/190 131/191/191 104/192/192
f 104/192/192 131/191/191 105/193/193
f 105/194/194 131/195/195 106/196/196
f 106/196/196 131/195/195 132/197/197
f 106/198/198 132/199/199 107/200/200
f 107/200/200 132/199/199 133/201/201
f 133/202/202 134/203/203 107/204/204
f 107/204/204 134/203/203 108/205/205
f 108/206/206 134/207/207 109/208/208
f 109/208/208 134/207/207 135/209/209
f 109/210/210 135/211/211 110/212/212
f 110/212/212 135/211/211 124/213/213
f 124/214/214 135/215/215 125/216/216
f 125/216/216 135/215/215 126/217/217
f 126/217/217 135/215/215 129/218/218
f 126/217/217 129/218/218 127/219/219
f 127/219/219 129/218/218 128/220/220
f 134/221/221 133/222/222 135/215/215
f 135/215/215 133/222/222 132/223/223
f 135/215/215 132/223/223 129/218/218
f 129/218/218 132/223/223 131/224/224
f 129/218/218 131/224/224 130/225/225
f 136/226/226 137/227/227 119/228/228
f 119/228/228 137/227/227 111/229/229
f 111/230/230 137/231/231 112/232/232
f 112/232/232 137/231/231 138/233/233
f 112/234/234 138/235/235 113/236/236
f 113/236/236 138/235/235 139/237/237
f 139/238/238 140/239/239 113/240/240
f 113/240/240 140/239/239 114/241/241
f 114/242/242 140/243/243 115/244/244
f 115/244/244 140/243/243 141/245/245
f 115/246/246 141/247/247 116/248/248
f 116/248/248 141/247/247 142/249/249
f 142/250/250 143/251/251 116/252/252
f 116/252/252 143/251/251 117/253/253
f 117/254/254 143/255/255 118/256/256
f 118/256/256 143/255/255 144/257/257
f 118/258/258 144/259/259 119/260/260
f 119/260/260 144/259/259 136/261/261
f 137/262/262 136/263/263 138/264/264
f 138/264/264 136/263/263 144/265/265
f 138/264/264 144/265/265 141/266/266
f 141/266/266 144/265/265 143/267/267
f 141/266/266 143/267/267 142/268/268
f 140/269/269 139/270/270 141/266/266
f 141/266/266 139/270/270 138/264/264
f 94/271/271 145/272/272 91/273/273
f 91/273/273 145/272/272 146/274/274
f 146/275/275 147/276/276 91/277/277
f 91/277/277 147/276/276 92/278/278
f 92/279/279 147/280/280 93/281/281
f 93/281/281 147/280/280 148/282/282
f 148/283/283 145/284/284 93/285/285
f 93/285/285 145/284/284 94/286/286
f 146/287/287 145/288/288 147/289/289
f 147/289/289 145/288/288 148/290/290
f 6/291/291 5/292/292 149/293/293
f 149/293/293 5/292/292 89/294/294
f 7/295/295 6/296/296 150/297/297
f 150/297/297 6/296/296 149/298/298
f 7/299/299 150/300/300 8/301/301
f 8/301/301 150/300/300 151/302/302
f 9/303/303 8/304/304 152/305/305
f 152/305/305 8/304/304 151/306/306
f 152/307/307 88/308/308 9/309/309
f 9/309/309 88/308/308 10/310/310
f 149/311/311 179/312/312 150/313/313
f 150/313/313 179/312/312 180/314/314
f 150/313/313 180/314/314 181/315/315
f 89/316/316 170/317/317 149/311/311
f 149/311/311 170/317/317 171/318/318
f 149/311/311 171/318/318 172/319/319
f 89/316/316 88/320/320 170/317/317
f 170/317/317 88/320/320 169/321/321
f 169/321/321 88/320/320 152/322/322
f 169/321/321 152/322/322 168/323/323
f 168/323/323 152/322/322 167/324/324
f 167/324/324 152/322/322 166/325/325
f 166/325/325 152/322/322 165/326/326
f 165/326/326 152/322/322 164/327/327
f 164/327/327 152/322/322 163/328/328
f 163/328/328 152/322/322 162/329/329
f 162/329/329 152/322/322 161/330/330
f 161/330/330 152/322/322 160/331/331
f 160/331/331 152/322/322 151/332/332
f 160/331/331 151/332/332 159/333/333
f 159/333/333 151/332/332 158/334/334
f 158/334/334 151/332/332 157/335/335
f 157/335/335 151/332/332 156/336/336
f 156/336/336 151/332/332 155/337/337
f 155/337/337 151/332/332 154/338/338
f 154/338/338 151/332/332 150/313/313
f 154/338/338 150/313/313 153/339/339
f 153/339/339 150/313/313 184/340/340
f 184/340/340 150/313/313 183/341/341
f 183/341/341 150/313/313 182/342/342
f 182/342/342 150/313/313 181/315/315
f 172/319/319 173/343/343 149/311/311
f 149/311/311 173/343/343 174/344/344
f 149/311/311 174/344/344 175/345/345
f 175/345/345 176/346/346 149/311/311
f 149/311/311 176/346/346 177/347/347
f 149/311/311 177/347/347 178/348/348
f 178/348/348 179/312/312 149/311/311
f 170/349/349 48/350/350 171/351/351
f 171/351/351 48/350/350 47/352/352
f 171/351/351 47/352/352 46/353/353
f 171/351/351 46/353/353 172/354/354
f 172/354/354 46/353/353 45/355/355
f 172/354/354 45/355/355 173/356/356
f 173/356/356 45/355/355 44/357/357
f 173/356/356 44/357/357 174/358/358
f 174/358/358 44/357/357 43/359/359
f 174/358/358 43/359/359 175/360/360
f 175/360/360 43/359/359 42/361/361
f 175/360/360 42/361/361 176/362/362
f 176/362/362 42/361/361 41/363/363
f 176/362/362 41/363/363 177/364/364
f 177/364/364 41/363/363 40/365/365
f 177/364/364 40/365/365 178/366/366
f 178/366/366 40/365/365 39/367/367
f 178/366/366 39/367/367 179/368/368
f 179/368/368 39/367/367 38/369/369
f 179/368/368 38/369/369 180/370/370
f 180/370/370 38/369/369 37/371/371
f 180/370/370 37/371/371 181/372/372
f 181/372/372 37/371/371 36/373/373
f 181/372/372 36/373/373 182/374/374
f 182/374/374 36/373/373 35/375/375
f 182/374/374 35/375/375 183/376/376
f 183/376/376 35/375/375 34/377/377
f 183/376/376 34/377/377 184/378/378
f 184/378/378 34/377/377 153/379/379
f 153/379/379 34/377/377 33/380/380
f 153/381/379 33/382/380 154/383/381
f 154/383/381 33/382/380 32/384/382
f 154/385/381 32/386/382 155/387/383
f 155/387/383 32/386/382 31/388/384
f 155/387/383 31/388/384 30/389/385
f 155/387/383 30/389/385 156/390/386
f 156/390/386 30/389/385 29/391/387
f 156/390/386 29/391/387 157/392/388
f 157/392/388 29/391/387 28/393/389
f 157/392/388 28/393/389 158/394/390
f 158/394/390 28/393/389 27/395/391
f 158/394/390 27/395/391 159/396/392
f 159/396/392 27/395/391 26/397/393
f 159/396/392 26/397/393 160/398/394
f 160/398/394 26/397/393 25/399/395
f 160/398/394 25/399/395 161/400/396
f 161/400/396 25/399/395 24/401/397
f 161/400/396 24/401/397 162/402/398
f 162/402/398 24/401/397 23/403/399
f 162/402/398 23/403/399 163/404/400
f 163/404/400 23/403/399 22/405/401
f 163/404/400 22/405/401 164/406/402
f 164/406/402 22/405/401 21/407/403
f 164/406/402 21/407/403 165/408/404
f 165/408/404 21/407/403 20/409/405
f 165/408/404 20/409/405 166/410/406
f 166/410/406 20/409/405 19/411/407
f 166/410/406 19/411/407 167/412/408
f 167/412/408 19/411/407 18/413/409
f 167/412/408 18/413/409 168/414/410
f 168/414/410 18/413/409 169/415/411
f 169/415/411 18/413/409 17/416/412
f 169/417/411 17/418/412 170/419/349
f 170/419/349 17/418/412 48/420/350
f 14/421/413 13/422/414 185/423/415
f 185/423/415 13/422/414 84/424/416
f 15/425/417 14/426/418 186/427/419
f 186/427/419 14/426/418 185/428/420
f 81/429/421 16/430/422 186/431/423
f 186/431/423 16/430/422 15/432/424
f 81/433/425 209/434/426 82/435/427
f 82/435/427 209/434/426 210/436/428
f 82/435/427 210/436/428 211/437/429
f 186/438/430 203/439/431 81/433/425
f 81/433/425 203/439/431 204/440/432
f 81/433/425 204/440/432 205/441/433
f 185/442/434 196/443/435 186/438/430
f 186/438/430 196/443/435 197/444/436
f 186/438/430 197/444/436 198/445/437
f 84/446/438 187/447/439 185/442/434
f 185/442/434 187/447/439 188/448/440
f 185/442/434 188/448/440 189/449/441
f 84/446/438 83/450/442 187/447/439
f 187/447/439 83/450/442 218/451/443
f 218/451/443 83/450/442 82/435/427
f 218/451/443 82/435/427 217/452/444
f 217/452/444 82/435/427 216/453/445
f 216/453/445 82/435/427 215/454/446
f 215/454/446 82/435/427 214/455/447
f 214/455/447 82/435/427 213/456/448
f 213/456/448 82/435/427 212/457/449
f 212/457/449 82/435/427 211/437/429
f 189/449/441 190/458/450 185/442/434
f 185/442/434 190/458/450 191/459/451
f 185/442/434 191/459/451 192/460/452
f 192/460/452 193/461/453 185/442/434
f 185/442/434 193/461/453 194/462/454
f 185/442/434 194/462/454 195/463/455
f 195/463/455 196/443/435 185/442/434
f 198/445/437 199/464/456 186/438/430
f 186/438/430 199/464/456 200/465/457
f 186/438/430 200/465/457 201/466/458
f 201/466/458 202/467/459 186/438/430
f 186/438/430 202/467/459 203/439/431
f 205/441/433 206/468/460 81/433/425
f 81/433/425 206/468/460 207/469/461
f 81/433/425 207/469/461 208/470/462
f 208/470/462 209/434/426 81/433/425
f 218/471/463 66/472/464 187/473/465
f 187/473/465 66/472/464 65/474/466
f 187/475/465 65/476/466 188/477/467
f 188/477/467 65/476/466 64/478/468
f 188/477/467 64/478/468 63/479/469
f 188/477/467 63/479/469 189/480/470
f 189/480/470 63/479/469 62/481/471
f 189/480/470 62/481/471 190/482/472
f 190/482/472 62/481/471 61/483/473
f 190/482/472 61/483/473 191/484/474
f 191/484/474 61/483/473 60/485/475
f 191/484/474 60/485/475 192/486/476
f 192/486/476 60/485/475 59/487/477
f 192/486/476 59/487/477 193/488/478
f 193/488/478 59/487/477 58/489/479
f 193/488/478 58/489/479 194/490/480
f 194/490/480 58/489/479 57/491/481
f 194/490/480 57/491/481 195/492/482
f 195/492/482 57/491/481 56/493/483
f 195/492/482 56/493/483 196/494/484
f 196/494/484 56/493/483 55/495/485
f 196/494/484 55/495/485 197/496/486
f 197/496/486 55/495/485 54/497/487
f 197/496/486 54/497/487 198/498/488
f 198/498/488 54/497/487 53/499/489
f 198/498/488 53/499/489 199/500/490
f 199/500/490 53/499/489 52/501/491
f 199/500/490 52/501/491 200/502/492
f 200/502/492 52/501/491 51/503/493
f 200/502/492 51/503/493 201/504/494
f 201/504/494 51/503/493 202/505/495
f 202/505/495 51/503/493 50/506/496
f 202/507/495 50/508/496 203/509/497
f 203/509/497 50/508/496 49/510/498
f 203/511/497 49/512/498 204/513/499
f 204/513/499 49/512/498 80/514/500
f 204/513/499 80/514/500 79/515/501
f 204/513/499 79/515/501 205/516/502
f 205/516/502 79/515/501 78/517/503
f 205/516/502 78/517/503 206/518/504
f 206/518/504 78/517/503 77/519/505
f 206/518/504 77/519/505 207/520/506
f 207/520/506 77/519/505 76/521/507
f 207/520/506 76/521/507 208/522/508
f 208/522/508 76/521/507 75/523/509
f 208/522/508 75/523/509 209/524/510
f 209/524/510 75/523/509 74/525/511
f 209/524/510 74/525/511 210/526/512
f 210/526/512 74/525/511 73/527/513
f 210/526/512 73/527/513 211/528/514
f 211/528/514 73/527/513 72/529/515
f 211/528/514 72/529/515 212/530/516
f 212/530/516 72/529/515 71/531/517
f 212/530/516 71/531/517 213/532/518
f 213/532/518 71/531/517 70/533/519
f 213/532/518 70/533/519 214/534/520
f 214/534/520 70/533/519 69/535/521
f 214/534/520 69/535/521 215/536/522
f 215/536/522 69/535/521 68/537/523
f 215/536/522 68/537/523 216/538/524
f 216/538/524 68/537/523 67/539/525
f 216/538/524 67/539/525 217/540/526
f 217/540/526 67/539/525 218/541/463
f 218/541/463 67/539/525 66/542/464
# 218 vertices
# 542 texture params
# 526 normals
# 440 facets

# 1 groups
